<svg width="256" height="256" viewBox="0 0 256 256" fill="none" xmlns="http://www.w3.org/2000/svg">
  <rect x="8" y="8" width="240" height="240" rx="44" fill="#2E7D5A"/>
  
  <g fill="none" stroke-linecap="round" stroke-linejoin="round">
    <path d="M128 205C88 169 54 138 46 100C38 62 69 36 101 49C113 54 122 64 128 75C134 64 143 54 155 49C187 36 218 62 210 100C202 138 168 169 128 205Z" stroke="#FFFFFF" stroke-width="12"/>
    <path d="M128 205C168 169 202 138 210 100C218 62 187 36 155 49C143 54 134 64 128 75" stroke="#FFFFFF" stroke-width="12"/>
    <path d="M58 124C88 132 112 153 128 190C102 178 75 157 58 124Z" fill="#FFFFFF" stroke="#FFFFFF" stroke-width="5"/>
    <path d="M198 124C168 132 144 153 128 190C154 178 181 157 198 124Z" fill="#FFFFFF" stroke="#FFFFFF" stroke-width="5"/>
    <path d="M70 151C91 160 110 174 128 202" stroke="#F5F3EE" stroke-width="5"/>
    <path d="M186 151C165 160 146 174 128 202" stroke="#F5F3EE" stroke-width="5"/>
    <path d="M60 212C89 210 111 216 128 228C145 216 167 210 196 212" stroke="#FFFFFF" stroke-width="11"/>
    <path d="M128 204V226" stroke="#FFFFFF" stroke-width="8"/>
  </g>
</svg>