<svg width="64" height="64" viewBox="0 0 64 64" fill="none" xmlns="http://www.w3.org/2000/svg">
  <rect width="64" height="64" rx="18" fill="#FBF8F1"/>
  <path d="M31.9 50.8C24.1 44.6 17.3 39.1 13.6 33.4C9.8 27.5 10.6 19.6 16.3 15.2C21.6 11.1 28.1 12.8 32 18.1C35.9 12.8 42.4 11.1 47.7 15.2C53.4 19.6 54.2 27.5 50.4 33.4C46.7 39.1 39.9 44.6 32.1 50.8H31.9Z" fill="url(#paint0_linear)"/>
  <path d="M31.9 50.8C24.1 44.6 17.3 39.1 13.6 33.4C9.8 27.5 10.6 19.6 16.3 15.2C21.6 11.1 28.1 12.8 32 18.1C35.9 12.8 42.4 11.1 47.7 15.2C53.4 19.6 54.2 27.5 50.4 33.4C46.7 39.1 39.9 44.6 32.1 50.8H31.9Z" fill="url(#paint1_radial)" fill-opacity=".28"/>
  <defs>
    <linearGradient id="paint0_linear" x1="15" y1="13" x2="49" y2="52" gradientUnits="userSpaceOnUse">
      <stop stop-color="#D2A657"/>
      <stop offset=".52" stop-color="#2F8A70"/>
      <stop offset="1" stop-color="#0B2B38"/>
    </linearGradient>
    <radialGradient id="paint1_radial" cx="0" cy="0" r="1" gradientUnits="userSpaceOnUse" gradientTransform="translate(26 21) rotate(54) scale(35 26)">
      <stop stop-color="#FFFFFF"/>
      <stop offset="1" stop-color="#FFFFFF" stop-opacity="0"/>
    </radialGradient>
  </defs>
</svg>
